<?xml version="1.0" encoding="UTF-8"?>
<svg width="828px" height="94px" viewBox="0 0 828 94" version="1.1" xmlns="http://www.w3.org/2000/svg" xmlns:xlink="http://www.w3.org/1999/xlink">
    <!-- Generator: Sketch 42 (36781) - http://www.bohemiancoding.com/sketch -->
    <title>Group 13</title>
    <desc>Created with Sketch.</desc>
    <defs></defs>
    <g id="Page-1" stroke="none" stroke-width="1" fill="none" fill-rule="evenodd">
        <g id="Desktop-HD-Copy-8" transform="translate(-612.000000, -122.000000)">
            <g id="Group-9" transform="translate(-403.000000, 122.000000)">
                <g id="Group-10" transform="translate(1015.000000, 0.000000)">
                    <g id="Group-11">
                        <g id="Group-12">
                            <g id="Group-13">
                                <rect id="Rectangle" fill="#FFFB00" x="0" y="26.6073956" width="829" height="48.4352088"></rect>
                                <path d="M43.085,90 L90.701,90 L90.701,84.048 L87.353,82.932 C82.517,81.072 81.587,80.7 81.587,78.282 L81.587,25.086 C84.005,20.436 89.399,14.67 96.281,14.67 C107.441,14.67 108.929,25.272 108.929,34.2 L108.929,78.282 C108.929,80.7 108.371,80.886 102.977,82.932 L99.629,84.048 L99.629,90 L146.501,90 L146.501,84.048 L143.153,82.932 C138.131,81.072 137.387,80.7 137.387,78.282 L137.387,31.968 C137.387,14.484 129.017,0.534 110.231,0.534 C95.165,0.534 86.795,9.276 81.587,18.948 L81.587,0.534 L76.007,0.534 L43.271,7.23 L43.271,12.81 L46.061,14.298 C50.153,16.902 52.385,17.832 52.385,22.482 L52.385,78.282 C52.385,80.7 51.269,81.072 46.433,82.932 L43.085,84.048 L43.085,90 Z M196.163,92.232 C171.797,92.232 154.871,76.05 154.499,47.22 C153.941,18.018 173.471,0.534 198.209,0.534 C216.809,0.534 235.037,9.276 235.037,29.736 C235.037,33.084 234.479,37.734 233.735,41.082 L183.143,39.78 L183.143,42.942 C184.259,61.542 192.443,75.12 209.183,75.12 C219.971,75.12 226.109,72.33 231.689,66.564 L233.549,68.424 C228.155,80.328 217.181,92.232 196.163,92.232 Z M183.329,33.27 L207.881,31.41 C208.997,28.434 209.369,26.202 209.369,22.668 C209.369,12.066 205.463,7.602 198.953,7.602 C189.839,7.602 184.631,18.018 183.329,33.27 Z M267.215,92.232 L286.931,90 L306.089,45.546 L319.295,92.232 L340.685,90 L367.469,15.6 C368.585,12.624 369.701,11.694 372.863,10.764 L375.467,10.02 L375.467,5.184 L344.777,5.184 L344.777,10.02 L351.287,11.508 C357.053,12.81 357.611,13.926 356.495,17.274 L339.755,66.564 L325.805,16.53 C325.061,14.112 325.619,12.996 329.339,11.694 L333.989,10.02 L333.989,5.184 L289.349,5.184 L289.349,10.02 L292.883,11.322 C295.859,12.438 296.603,13.926 297.347,16.344 L302.183,32.34 L287.861,66.75 L272.981,16.53 C272.423,14.298 272.795,12.624 276.515,11.508 L280.979,10.02 L280.979,5.184 L236.897,5.184 L236.897,10.02 L238.385,10.95 C240.803,12.252 241.547,12.624 242.849,16.344 L267.215,92.232 Z M380.117,92.232 L384.209,92.232 L387.743,88.326 C391.649,90.372 400.391,92.232 409.133,92.232 C434.615,92.232 449.867,83.862 449.867,63.774 C449.867,47.034 434.615,39.594 425.315,35.502 L418.061,32.34 C411.737,29.736 408.017,26.388 408.017,18.204 C408.017,10.206 414.899,6.114 421.595,6.114 C426.803,6.114 432.569,9.276 435.173,12.438 C436.475,15.6 438.707,20.25 439.637,28.062 L446.147,28.062 L446.147,0.534 L441.683,0.534 L438.521,4.812 C434.243,2.208 426.803,0.534 418.247,0.534 C398.717,0.534 380.675,9.648 380.675,27.69 C380.675,42.012 389.603,49.266 398.159,53.172 L410.621,58.752 C413.597,60.24 421.409,62.844 421.409,71.958 C421.409,80.328 414.527,85.908 406.343,85.908 C404.297,85.908 399.089,84.42 394.811,80.142 C392.393,76.98 387.185,65.634 386.069,59.868 L379.187,59.868 L380.117,92.232 Z M500.273,92.232 C475.907,92.232 458.981,76.05 458.609,47.22 C458.051,18.018 477.581,0.534 502.319,0.534 C520.919,0.534 539.147,9.276 539.147,29.736 C539.147,33.084 538.589,37.734 537.845,41.082 L487.253,39.78 L487.253,42.942 C488.369,61.542 496.553,75.12 513.293,75.12 C524.081,75.12 530.219,72.33 535.799,66.564 L537.659,68.424 C532.265,80.328 521.291,92.232 500.273,92.232 Z M487.439,33.27 L511.991,31.41 C513.107,28.434 513.479,26.202 513.479,22.668 C513.479,12.066 509.573,7.602 503.063,7.602 C493.949,7.602 488.741,18.018 487.439,33.27 Z M612.245,93.162 L652.607,88.698 L652.607,83.676 L646.469,81.258 C641.633,79.398 641.447,79.026 641.447,76.608 L641.447,27.318 C641.447,18.762 642.005,8.16 642.749,0.534 L637.169,0.534 L602.015,7.23 L602.015,12.252 L605.549,13.554 C611.873,15.786 612.245,16.902 612.245,23.598 L612.245,67.68 C610.013,72.33 603.131,78.282 598.481,78.282 C587.135,78.282 586.577,65.82 586.577,57.45 L586.577,26.76 C586.577,16.53 587.507,5.928 588.251,0.534 L581.927,0.534 L548.447,7.602 L548.447,13.182 L551.051,13.926 C556.631,15.6 557.561,16.716 557.561,21.552 L557.561,60.798 C557.561,78.468 564.815,92.232 584.345,92.232 C596.993,92.232 606.479,86.652 612.245,73.818 L612.245,93.162 Z M659.303,90 L706.919,90 L706.919,84.048 L701.711,82.002 C698.735,80.886 697.805,80.7 697.805,78.282 L697.805,25.086 C699.851,21.18 705.431,14.67 712.499,14.67 C723.101,14.67 725.147,25.644 725.147,34.2 L725.147,78.282 C725.147,80.7 724.589,80.886 719.195,82.932 L715.847,84.048 L715.847,90 L762.905,90 L762.905,84.048 L759.557,82.932 C754.535,81.072 753.791,80.7 753.791,78.282 L753.791,31.968 L753.419,23.784 C756.023,19.134 760.859,14.484 767.927,14.484 C778.529,14.484 780.575,25.644 780.575,34.2 L780.575,78.282 C780.575,80.7 780.017,80.886 774.623,82.932 L771.275,84.048 L771.275,90 L818.147,90 L818.147,84.048 L814.799,82.932 C809.777,81.072 809.033,80.7 809.033,78.282 L809.033,31.968 C809.033,15.228 800.477,0.534 782.249,0.534 C765.695,0.534 757.325,10.578 753.419,18.762 L752.117,18.762 C748.583,7.416 738.911,0.534 726.821,0.534 C712.127,0.534 703.199,8.718 697.805,18.948 L697.805,0.534 L692.225,0.534 L659.489,7.23 L659.489,12.81 C659.303,12.624 662.279,14.298 662.279,14.298 C666.371,16.902 668.603,17.832 668.603,22.482 L668.603,78.282 C668.603,80.7 667.487,81.072 662.651,82.932 L659.303,84.048 L659.303,90 Z" id="newseum" fill="#141414"></path>
                            </g>
                        </g>
                    </g>
                </g>
            </g>
        </g>
    </g>
</svg>